<svg width="249" height="31" viewBox="0 0 249 31" fill="none" xmlns="http://www.w3.org/2000/svg">
<path d="M42.1778 20.44H33.4178V20.84H40.4978V21.64H37.3778V21.84H34.2578V22.44H32.2178V23.04H31.3378V23.64H27.1378V24.44H33.4178V25.24H30.2178V25.64H33.0178V26.04H34.6978V26.64H35.2978V27.24H35.8578V27.64H35.8978V28.44H36.7378V28.64H36.2978V28.84H35.2978V29.04H32.9778L32.8578 29.44H31.6178C31.5111 29.6267 31.3911 29.76 31.2578 29.84H32.7378C32.6045 29.9467 32.4178 30 32.1778 30H24.9378C24.6978 30 24.5111 29.9467 24.3778 29.84H22.8578C22.7245 29.76 22.6045 29.6267 22.4978 29.44H23.6978C23.6178 29.3067 23.5778 29.1733 23.5778 29.04H25.8978V28.84H26.8978V28.64H27.3378V28.44H26.4978V27.64H26.4578V27.24H25.8978V26.64H25.2978V26.04H23.6178V25.64H20.8178V25.24H24.0178V24.44H9.85781V25.24H15.5778V25.64H14.7378V26.64H14.8978V27.24H14.1378V27.64H13.8578V28.44H13.9778V28.64H16.9378V28.84H14.4578V29.04H15.8978C15.8978 29.1733 15.8578 29.3067 15.7778 29.44H13.5778C13.4978 29.6267 13.3645 29.76 13.1778 29.84H12.9378C12.8045 29.9467 12.6045 30 12.3378 30H5.09781C4.85781 30 4.67115 29.9467 4.53781 29.84H4.81781C4.73781 29.7867 4.65781 29.7333 4.57781 29.68C4.52448 29.6 4.47115 29.52 4.41781 29.44H6.65781C6.57781 29.3067 6.53781 29.1733 6.53781 29.04H5.05781V28.84H7.53781V28.64H4.57781V28.44H4.45781V27.64H4.73781V27.24H5.49781V26.64H5.33781V25.64H6.17781V25.24H0.457812V24.44H9.09781V23.64H1.21781V23.04H1.01781V22.44H4.29781V21.84H5.45781V21.64H2.89781V20.84H8.49781V20.44H12.4178L12.2978 20.24H5.17781V20.04H6.49781V19.84H5.49781V19.04H5.53781V18.64H6.45781V18.04H6.25781V17.24H5.17781V17.04H1.57781V16.64H4.69781V16.44H4.57781V16.04H6.33781V15.64H7.29781V15.04H0.977812V14.24H6.01781V13.84H1.53781V13.24H6.17781V12.84H5.61781V12.44H4.09781V12.24H4.85781V11.64H9.45781V11.04H8.77781V10.64H4.97781V10.44H4.77781V9.84H6.65781V9.04H2.49781V8.64H3.93781V8.44H4.33781V8.04H3.41781V7.44H7.01781V6.84H5.17781V6.04H8.21781V5.84H7.25781V5.04H10.8178V4.44H2.45781V3.84H11.3378V3.24H7.41781V2.84H4.41781C4.44448 2.70667 4.48448 2.6 4.53781 2.52C4.61781 2.41333 4.69781 2.32 4.77781 2.24H4.97781C5.13781 2.08 5.36448 2 5.65781 2H11.9778C12.3511 2 12.6578 2.08 12.8978 2.24H12.6978C12.8578 2.32 12.9911 2.41333 13.0978 2.52C13.2045 2.62667 13.2845 2.73333 13.3378 2.84H16.3778L16.5378 3.08L16.6178 3.24H20.5778L20.9378 3.84H12.0578L12.4178 4.44H20.7378L21.0978 5.04H17.5778L18.0578 5.84H19.0178L19.1378 6.04H16.0978L16.5778 6.84H18.3778L18.7378 7.44H15.1778L15.5378 8.04H16.4578L16.6978 8.44H16.2978L16.4178 8.64H14.9778L15.2178 9.04H19.3778L19.8578 9.84H17.9778L18.3378 10.44H18.5378L18.6578 10.64H21.6178L21.7378 10.44H20.6578L21.0178 9.84H22.3378L22.8178 9.04H22.0978L22.3378 8.64H19.0978L19.2178 8.44H23.2578L23.4978 8.04H23.1778L23.5378 7.44H25.9378L26.2978 6.84H26.4178L26.8978 6.04H25.0578L25.1778 5.84H29.3778L29.8578 5.04H29.6178L29.9778 4.44H23.8178L24.1778 3.84H30.0978L30.4578 3.24H26.0978L26.1778 3.08C26.2311 2.97333 26.2845 2.89333 26.3378 2.84H26.4178C26.4978 2.73333 26.5911 2.62667 26.6978 2.52C26.8045 2.41333 26.9245 2.32 27.0578 2.24H26.9778C27.2178 2.08 27.5245 2 27.8978 2H34.2178C34.4845 2 34.7111 2.08 34.8978 2.24H35.0178C35.0978 2.32 35.1645 2.41333 35.2178 2.52C35.2978 2.6 35.3511 2.70667 35.3778 2.84H35.2978V3.24H39.6978V3.84H33.7778V4.44H39.9378V5.04H40.1778V5.84H35.9778V6.04H37.8178V6.84H37.6978V7.44H35.2978V8.04H35.6178V8.44H31.5778V8.64H34.8178V9.04H35.5378V9.84H34.2578V10.44H35.2978V10.64H37.1778V11.04H33.0578V11.64H36.0178V12.24H35.2978V12.44H35.4578V12.84H36.0178V13.24H31.3778V13.84H35.8578V14.24H30.8178V15.04H37.1378V15.64H36.1778V16.04H34.4178V16.44H34.5378V16.64H31.4178V17.04H35.0178V17.24H36.0978V18.04H35.1778V18.64H34.4978V19.04H35.2978V19.84H35.6578V20.04H37.3778V20.24H42.1778V20.44ZM23.4578 10.64H22.4578L22.6978 11.04H23.2178L23.4578 10.64ZM18.7378 12.24L18.8578 12.44H20.4178L20.5378 12.68L20.6978 12.44H20.5378L20.6578 12.24H21.3378L21.6978 11.64H19.1778L19.5378 12.24H18.7378ZM24.6578 18.64H25.7778V18.04H25.0178L24.6578 18.64ZM14.8978 19.84H15.8978V20.04H14.5778V20.24H17.2978L17.1778 20.04H16.5378L16.3778 19.84H16.0178L15.5378 19.04H15.6178L15.3778 18.64H14.9378V19.04H14.8978V19.84ZM32.7778 20.44V20.24H27.9778V20.04H26.2578V19.84H25.8978V19.04H25.2578L24.7378 19.84H25.1378L25.0178 20.04H25.6578L25.5378 20.24H22.2578V20.44H17.8978V20.84H12.2978V21.64H14.8578V21.84H13.6978V22.44H10.4178V23.04H10.6178V23.64H21.9378V23.04H22.8178V22.44H19.4578C19.3778 22.5467 19.2978 22.6533 19.2178 22.76C19.1378 22.8667 19.0311 22.96 18.8978 23.04H18.7778C18.5378 23.2 18.2711 23.28 17.9778 23.28H15.1778C14.8578 23.28 14.5778 23.2 14.3378 23.04H14.4578C14.3511 22.96 14.2445 22.8667 14.1378 22.76C14.0578 22.6533 13.9778 22.5467 13.8978 22.44H18.0178L17.8978 22.28L17.6178 21.84H16.1778L16.0578 21.64H18.8578L18.3378 20.84H23.0178L22.7778 20.44H32.7778ZM31.0978 21.64V20.84H25.8578L25.3778 21.64H22.6178L22.4978 21.84H23.9378L23.6578 22.28L23.5378 22.44H24.8578V21.84H27.9778V21.64H31.0978ZM65.2756 18.44C65.3023 18.5733 65.3156 18.7067 65.3156 18.84C65.3156 18.9733 65.3156 19.1067 65.3156 19.24H62.4756V19.64H60.8356V20.04H62.3956V20.24H60.5956V20.84H59.5956V21.04H61.8356C61.8356 21.12 61.8223 21.1867 61.7956 21.24H61.6756V21.44H62.0356V21.48C62.0356 21.5867 62.0223 21.7067 61.9956 21.84C61.9956 21.9733 61.9823 22.1067 61.9556 22.24H61.6756L61.5556 23.04H62.1556C62.1556 23.1467 62.129 23.28 62.0756 23.44H61.9556C61.929 23.5467 61.9023 23.6533 61.8756 23.76C61.849 23.84 61.8223 23.9333 61.7956 24.04H62.1156C62.089 24.1733 62.049 24.3067 61.9956 24.44C61.9423 24.5733 61.889 24.7067 61.8356 24.84H61.2356L61.0756 25.24H61.1556C61.1023 25.3467 61.0756 25.4133 61.0756 25.44H60.9156C60.809 25.7067 60.6623 25.9733 60.4756 26.24H60.5556C60.529 26.2933 60.489 26.36 60.4356 26.44C60.3823 26.52 60.329 26.5867 60.2756 26.64H60.2356L59.7556 27.24C59.729 27.2667 59.7023 27.2933 59.6756 27.32C59.649 27.3467 59.609 27.3867 59.5556 27.44H59.3556C59.249 27.5467 59.1423 27.6533 59.0356 27.76C58.929 27.84 58.809 27.9333 58.6756 28.04H57.4756L56.6356 28.64H56.7956C56.7423 28.6667 56.689 28.6933 56.6356 28.72C56.5823 28.7467 56.529 28.7867 56.4756 28.84H56.1956C56.1423 28.8667 56.0756 28.8933 55.9956 28.92C55.9156 28.9467 55.849 28.9867 55.7956 29.04H57.9556C57.8223 29.12 57.6756 29.2 57.5156 29.28C57.3556 29.3333 57.1956 29.3867 57.0356 29.44H56.3556C56.169 29.52 55.969 29.6 55.7556 29.68C55.5423 29.7333 55.329 29.7867 55.1156 29.84H55.2756C54.9556 29.92 54.6223 29.9867 54.2756 30.04C53.929 30.12 53.569 30.1867 53.1956 30.24H54.4356C54.009 30.2933 53.569 30.3333 53.1156 30.36C52.6623 30.3867 52.1956 30.4 51.7156 30.4C51.209 30.4 50.729 30.3867 50.2756 30.36C49.849 30.3333 49.409 30.2933 48.9556 30.24H47.6756C47.329 30.1867 46.969 30.12 46.5956 30.04C46.249 29.9867 45.9156 29.92 45.5956 29.84H45.4756C45.2623 29.7867 45.049 29.7333 44.8356 29.68C44.649 29.6 44.449 29.52 44.2356 29.44H44.8756C44.7423 29.3867 44.5956 29.3333 44.4356 29.28C44.2756 29.2 44.129 29.12 43.9956 29.04H41.8356L41.4756 28.84H41.7556L41.3956 28.64H41.2356C40.9156 28.4267 40.6356 28.2267 40.3956 28.04H41.5956C41.489 27.9333 41.3823 27.84 41.2756 27.76C41.169 27.6533 41.0623 27.5467 40.9556 27.44H41.1556C41.129 27.3867 41.1023 27.3467 41.0756 27.32C41.049 27.2933 41.009 27.2667 40.9556 27.24L40.4756 26.64H40.5156L40.2356 26.24H40.1556C39.969 25.9733 39.8223 25.7067 39.7156 25.44H39.8356C39.7823 25.3333 39.7556 25.2667 39.7556 25.24H39.6356L39.4756 24.84H40.0756C40.049 24.7067 40.009 24.5733 39.9556 24.44C39.9023 24.3067 39.849 24.1733 39.7956 24.04H39.4756C39.449 23.9333 39.4223 23.84 39.3956 23.76C39.369 23.6533 39.3423 23.5467 39.3156 23.44H39.0756L38.9556 23.04H38.5556L38.4356 22.24H38.8356C38.809 22.1067 38.7823 21.9733 38.7556 21.84C38.7556 21.7067 38.7556 21.5867 38.7556 21.48V21.44H38.0356V21.24H37.8356C37.8356 21.1867 37.8223 21.1467 37.7956 21.12C37.7956 21.0933 37.7956 21.0667 37.7956 21.04H40.0356C40.0356 20.96 40.0223 20.8933 39.9956 20.84H37.7556V20.24H38.7156V20.04H39.1956V19.64H40.0356V19.24H37.5956C37.5956 19.1067 37.5956 18.9733 37.5956 18.84C37.5956 18.7067 37.609 18.5733 37.6356 18.44H37.1156V18.04H41.0756C41.1023 17.96 41.1156 17.8533 41.1156 17.72V17.44H40.0356C40.0356 17.3333 40.0356 17.24 40.0356 17.16C40.0623 17.0533 40.0756 16.9467 40.0756 16.84H40.4756L40.5956 16.04H39.2756C39.3023 15.9333 39.329 15.84 39.3556 15.76C39.3823 15.6533 39.409 15.5467 39.4356 15.44H39.1556C39.209 15.3067 39.249 15.1733 39.2756 15.04C39.329 14.88 39.3823 14.7467 39.4356 14.64H39.4756C39.5023 14.5867 39.529 14.52 39.5556 14.44C39.5823 14.36 39.609 14.2933 39.6356 14.24H39.5956C39.5956 14.2133 39.6223 14.1467 39.6756 14.04H39.8756C39.9823 13.7733 40.129 13.5067 40.3156 13.24H39.5156L39.7556 12.84H41.2356C41.2623 12.7867 41.3156 12.72 41.3956 12.64H38.4756C38.529 12.5333 38.5956 12.44 38.6756 12.36C38.7823 12.2533 38.8756 12.1467 38.9556 12.04H39.8756C40.009 11.9067 40.1423 11.7733 40.2756 11.64C40.4356 11.48 40.5823 11.3467 40.7156 11.24H42.5556C42.7956 11.0267 43.0756 10.8267 43.3956 10.64H44.1556C44.2623 10.56 44.369 10.4933 44.4756 10.44C44.609 10.36 44.729 10.2933 44.8356 10.24H42.4756C42.7156 10.1067 43.009 9.97333 43.3556 9.84H44.4356C45.049 9.6 45.689 9.4 46.3556 9.24H45.1556C46.4623 8.94667 47.849 8.8 49.3156 8.8C50.7823 8.8 52.169 8.94667 53.4756 9.24H54.7156C55.3823 9.4 56.009 9.6 56.5956 9.84H55.4756C55.8223 9.97333 56.1156 10.1067 56.3556 10.24H58.7156C58.849 10.2933 58.969 10.36 59.0756 10.44C59.209 10.4933 59.329 10.56 59.4356 10.64H58.6756L59.5156 11.24H57.6756C57.8356 11.3467 57.9823 11.48 58.1156 11.64C58.2756 11.7733 58.4223 11.9067 58.5556 12.04H57.6356C57.7156 12.1467 57.7956 12.2533 57.8756 12.36C57.9823 12.44 58.0623 12.5333 58.1156 12.64H61.0756L61.1956 12.84H59.7556L59.9956 13.24H60.7956C60.9823 13.5067 61.129 13.7733 61.2356 14.04H61.0356C61.089 14.1467 61.1156 14.2133 61.1156 14.24H61.1956L61.3556 14.64H61.3156C61.369 14.7467 61.4223 14.88 61.4756 15.04C61.529 15.1733 61.569 15.3067 61.5956 15.44H61.9956L62.1156 16.04H61.8756C61.929 16.1467 61.9556 16.28 61.9556 16.44C61.9823 16.5733 62.009 16.7067 62.0356 16.84H62.3556C62.3823 16.9467 62.3956 17.0533 62.3956 17.16C62.3956 17.24 62.409 17.3333 62.4356 17.44H60.8756V17.72C60.8756 17.8533 60.889 17.96 60.9156 18.04H60.1156V18.44H65.2756ZM49.9156 16.84C49.889 16.9467 49.8623 17.0533 49.8356 17.16C49.8356 17.24 49.8356 17.3333 49.8356 17.44H50.9556C50.929 17.52 50.9156 17.6 50.9156 17.68C50.9156 17.76 50.9156 17.84 50.9156 17.92V18.04H51.0756V17.92C51.0756 17.84 51.0623 17.76 51.0356 17.68C51.0356 17.6 51.0356 17.52 51.0356 17.44H52.5956C52.5956 17.3333 52.5823 17.24 52.5556 17.16C52.5556 17.0533 52.5556 16.9467 52.5556 16.84H52.2356C52.209 16.68 52.169 16.5333 52.1156 16.4C52.089 16.2667 52.049 16.1467 51.9956 16.04H52.2756C52.169 15.8 52.009 15.6 51.7956 15.44H51.3956C51.129 15.28 50.7823 15.2 50.3556 15.2C49.929 15.2 49.5956 15.28 49.3556 15.44H49.6356C49.529 15.52 49.4356 15.6133 49.3556 15.72C49.2756 15.8 49.209 15.9067 49.1556 16.04H50.4756C50.449 16.1467 50.409 16.2667 50.3556 16.4C50.329 16.5333 50.3023 16.68 50.2756 16.84H49.9156ZM52.6356 19.24H55.4756V18.44H50.3156C50.289 18.3333 50.2756 18.2 50.2756 18.04H46.9556C46.9556 18.2 46.9423 18.3333 46.9156 18.44H47.4356V19.24H49.8756V19.64H48.9956V20.04H48.5156V20.24H47.5556C47.5556 20.3467 47.5556 20.4533 47.5556 20.56C47.5823 20.64 47.5956 20.7333 47.5956 20.84H50.7556V20.24H52.5556V20.04H50.9956V19.64H52.6356V19.24ZM51.9956 21.24V21.04H47.6356V21.24H47.8356V21.28C47.8356 21.3067 47.8356 21.3333 47.8356 21.36C47.8623 21.3867 47.8756 21.4133 47.8756 21.44H48.5556C48.5823 21.5733 48.5956 21.7067 48.5956 21.84C48.5956 21.9733 48.609 22.1067 48.6356 22.24H48.2356C48.289 22.5867 48.3423 22.8533 48.3956 23.04H48.8356C48.889 23.2 48.9423 23.3333 48.9956 23.44H49.2756C49.5156 23.8133 49.969 24 50.6356 24C51.3023 24 51.7556 23.8133 51.9956 23.44H52.1556C52.1823 23.3867 52.209 23.3333 52.2356 23.28C52.2623 23.2 52.289 23.12 52.3156 23.04H51.7156C51.7423 22.9067 51.769 22.7867 51.7956 22.68C51.8223 22.5467 51.849 22.4 51.8756 22.24H52.1556C52.1823 22.1067 52.1956 21.9733 52.1956 21.84C52.1956 21.7067 52.209 21.5733 52.2356 21.44H51.8756V21.24H51.9956ZM83.0403 17.84H89.9603L89.8003 18.24H87.6803L87.6003 18.44H83.2003L82.9603 19.04H83.9603L83.8803 19.24H83.4803L83.3203 19.64H83.0003L82.9203 19.84H84.0003L83.8003 20.24H80.6003L80.3603 20.84H80.6003L80.5203 21.04H77.6803L77.3603 21.84H83.6003L83.2803 22.64H76.5603L76.2403 23.44H77.8403L77.7603 23.64H81.9203L81.7603 24.04H81.3203L81.0803 24.64H77.6803L77.6003 24.84H80.4803L80.2403 25.44H81.1203L80.9603 25.84H80.4803L80.1603 26.64H80.4803L80.0803 27.64H80.0403L79.9603 27.84H79.8803L79.7203 28.24H79.7603L79.6003 28.64H79.8803L79.7603 28.84H78.7603L78.7203 29C78.6936 29 78.6803 29.0133 78.6803 29.04H78.7603L78.5203 29.44H79.1203C79.0136 29.6 78.8803 29.7333 78.7203 29.84H78.4003C78.3203 29.8667 78.227 29.9067 78.1203 29.96C78.0136 29.9867 77.8936 30 77.7603 30H71.3603C71.227 30 71.107 29.9867 71.0003 29.96C70.8936 29.9067 70.787 29.8667 70.6803 29.84H71.0003C70.8403 29.7333 70.6936 29.6 70.5603 29.44H70.0003C69.947 29.3867 69.907 29.32 69.8803 29.24C69.8536 29.16 69.8136 29.0933 69.7603 29.04H69.6803V29L69.6003 28.84H70.6003L70.5203 28.64H70.2403L70.0803 28.24H70.0403L69.8803 27.84H69.9603L69.8003 27.44H69.8403L69.6803 27.04H69.6403L69.4803 26.64H69.1603L68.8403 25.84H69.2803L69.1203 25.44H68.2403L68.0003 24.84H65.1203L65.0403 24.64H68.4003L68.1603 24.04H68.6403L68.4403 23.64H64.2803L64.2003 23.44H62.6003L62.2403 22.64H69.0003L68.6403 21.84H62.3603L62.0403 21.04H64.8803L64.8003 20.84H64.5603L64.3203 20.24H67.5203L67.3603 19.84H66.3203L66.2403 19.64H66.5203L66.3603 19.24H66.5203L66.4403 19.04H64.3603L64.1203 18.44H65.1603L65.0803 18.24H62.6403L62.4803 17.84H65.9203L65.6803 17.24H65.4003L65.2403 16.84H65.4403L65.2803 16.44H63.4803L63.4003 16.24H65.8803L65.8003 16.04H64.9203L64.8403 15.84H64.7603L64.4403 15.04H65.4003L65.1603 14.44H63.3603L63.2003 14.04H64.2403L64.0803 13.64H64.0003L63.6803 12.84H63.5603L63.4803 12.64H63.3603L63.2803 12.44H63.5603L63.4803 12.24H63.6803L63.4403 11.64H63.3603L63.2803 11.44H62.8403L62.5203 10.64H63.3203L63.2403 10.44C63.2136 10.3867 63.2003 10.32 63.2003 10.24H63.3603V10.16C63.3603 9.86667 63.4803 9.62667 63.7203 9.44H62.6003C62.7603 9.28 62.9603 9.2 63.2003 9.2H69.9603C70.3336 9.2 70.6136 9.28 70.8003 9.44H71.8803C72.0136 9.54667 72.1203 9.66667 72.2003 9.8C72.307 9.90667 72.3736 10.0267 72.4003 10.16L72.4403 10.24H72.2403L72.4003 10.64H71.6003L71.8803 11.44H72.3203L72.3603 11.64H72.4403L72.6403 12.24H72.4403L72.5203 12.44H72.2403L72.3203 12.64H72.4403L72.4803 12.84H72.6003L72.8803 13.64H72.9603L73.0803 14.04H72.0403L72.1603 14.44H73.9603L74.1603 15.04H73.2003L73.4803 15.84H73.5603L73.6403 16.04H74.5203L74.6003 16.24H72.1203L72.1603 16.44H73.9603L74.1203 16.84H73.8803L74.0403 17.24H74.2803L74.4803 17.76L74.6403 17.24H75.8003L75.9203 16.84H76.0403L76.1603 16.44H75.3603L75.4003 16.24H76.5603L76.6403 16.04H76.1203L76.1603 15.84H75.3603L75.6403 15.04H77.9203L78.1203 14.44H77.4003L77.5603 14.04H76.7603L76.8803 13.64H78.8803L79.1603 12.84H75.6003L75.6803 12.64H76.8803L76.9603 12.44H76.3203L76.4003 12.24H77.7603L77.9603 11.64H77.6003L77.6803 11.44H77.3203L77.6003 10.64H78.4003L78.5203 10.24H78.7603V10.16C78.8136 10.0267 78.8803 9.90667 78.9603 9.8C79.0403 9.66667 79.147 9.54667 79.2803 9.44H78.6803C78.8936 9.28 79.1603 9.2 79.4803 9.2H86.2403C86.4803 9.2 86.6936 9.28 86.8803 9.44H87.4803C87.6936 9.6 87.8003 9.84 87.8003 10.16V10.24H87.6003C87.6003 10.2667 87.587 10.2933 87.5603 10.32C87.5603 10.3467 87.5603 10.3867 87.5603 10.44L87.4803 10.64H86.6803L86.3603 11.44H86.7203L86.6403 11.64H86.9603L86.7203 12.24H85.3603L85.2803 12.44H85.9203L85.8403 12.64H84.6003L84.5203 12.84H88.0803L87.7603 13.64H85.7603L85.6003 14.04H86.4003L86.2403 14.44H86.9603L86.6803 15.04H84.4403L84.0803 15.84H84.8803L84.8003 16.04H85.3603L85.2803 16.24H84.0803L84.0003 16.44H84.8403L84.6803 16.84H84.5603L84.4003 17.24H83.2803L83.0403 17.84ZM79.1203 18.24H81.2403L81.4003 17.84H71.0403L71.2003 18.24H73.6003L73.6803 18.44H72.6403L72.8403 19.04H74.4403L74.6803 18.44H79.0803L79.1203 18.24ZM75.4003 19.24L75.4803 19.04H74.9203L75.0003 19.24H74.8403L74.9203 19.48L75.0003 19.24H75.4003ZM89.1156 5.84V5.04H89.0756V4.44H89.4356V4.24H89.6756V3.44H89.4756V2.84H89.5156V2.04H89.6756V1.44H89.5956V1.08C89.5956 0.866666 89.6223 0.719999 89.6756 0.639999H90.0756L90.1956 0.439999H89.8756C90.089 0.146665 90.3823 -2.38419e-06 90.7556 -2.38419e-06H97.5156C97.889 -2.38419e-06 98.1823 0.146665 98.3956 0.439999H98.7156L98.8356 0.639999H98.3956C98.4756 0.746666 98.5156 0.893332 98.5156 1.08V1.44H98.5956V2.04H98.4356V2.84H98.3956V3.44H98.5956V4.24H98.3556V4.44H97.9956V5.04H98.0356V5.84H98.3156V5.92C98.3156 6.16 98.2223 6.4 98.0356 6.64H97.5556C97.369 6.88 97.1023 7 96.7556 7H89.9956C89.649 7 89.369 6.88 89.1556 6.64H89.6356C89.4756 6.42667 89.3956 6.18667 89.3956 5.92V5.84H89.1156ZM97.3556 14.24H101.116V15.04H99.7556V15.44H98.2356V16.24H99.3956V16.44H98.6356V16.84H98.7556V17.24H98.9556V17.84H96.9556V18.44H98.2756V19.04H98.0356V19.44H98.7156V20.04H98.8756V20.64H98.6356V21.24H98.8356V21.64H98.6356V22.44H98.5556V23.04H98.3956V23.64H98.5556V24.04H98.6356V24.84H98.4756V25.24H98.6756V25.64H98.6356V26.24H98.7956V26.84H98.9156V27.04H98.6356V27.84H98.0756V28.64H98.4756V28.92C98.4756 29.0533 98.4623 29.16 98.4356 29.24H98.1556C98.0756 29.5067 97.929 29.7067 97.7156 29.84H98.5156C98.3823 29.9467 98.1823 30 97.9156 30H90.7556C90.5156 30 90.329 29.9467 90.1956 29.84H89.3956C89.1556 29.7067 88.9956 29.5067 88.9156 29.24H89.1956C89.169 29.16 89.1556 29.0533 89.1556 28.92V28.64H88.7556V27.84H89.3156V27.04H89.5956V26.84H89.4756V26.24H89.3156V25.64H89.3556V25.24H89.1556V24.84H89.3156V24.04H89.2356V23.64H89.0756V23.04H89.2356V22.44H89.3156V21.64H89.5156V21.24H89.3156V20.64H89.5556V20.04H89.3956V19.44H88.7156V19.04H88.9556V18.44H87.6356V17.84H89.6356V17.24H89.4356V16.84H89.3156V16.44H90.0756V16.24H88.9156V15.44H90.4356V15.04H91.7956V14.24H88.0356V13.84H91.3556V13.04H90.1556V12.44H90.8756V11.64H89.5956V11.44H89.3156V11.04H89.0756V10.44H89.3556V10.28C89.3556 9.98667 89.4223 9.77333 89.5556 9.64H89.5956C89.809 9.34667 90.1023 9.2 90.4756 9.2H97.6356C98.009 9.2 98.3023 9.34667 98.5156 9.64H98.4356C98.5956 9.8 98.6756 10.0133 98.6756 10.28V10.44H98.3956V11.04H98.6356V11.44H98.9156V11.64H100.196V12.44H99.4756V13.04H100.676V13.84H97.3556V14.24ZM122.918 19.04V19.44H127.998V19.84H124.918V20.24H123.478V20.64H124.718V20.88C124.718 21.04 124.704 21.16 124.678 21.24H125.238C125.051 21.72 124.704 21.96 124.198 21.96H112.278V22.04H113.878V22.16C113.878 22.2667 113.878 22.3867 113.878 22.52C113.878 22.6267 113.891 22.7333 113.918 22.84H111.758C111.758 22.92 111.758 23 111.758 23.08C111.784 23.1333 111.798 23.1867 111.798 23.24H111.558C111.558 23.3467 111.584 23.48 111.638 23.64H111.798C111.931 24.0133 112.144 24.28 112.438 24.44H111.358C111.544 24.5467 111.798 24.6 112.118 24.6C112.331 24.6 112.504 24.5467 112.638 24.44H114.518C114.624 24.3867 114.718 24.3067 114.798 24.2C114.904 24.0933 115.024 23.9867 115.158 23.88L115.398 23.64H114.638C114.878 23.4267 115.238 23.32 115.718 23.32H123.278C123.598 23.32 123.838 23.4267 123.998 23.64H124.718C124.851 23.8267 124.918 24.0133 124.918 24.2C124.891 24.2533 124.878 24.3333 124.878 24.44H122.998C122.944 24.7067 122.864 24.9733 122.758 25.24H120.798C120.718 25.3733 120.651 25.5067 120.598 25.64H125.558C125.504 25.7733 125.424 25.9067 125.318 26.04C125.238 26.1733 125.144 26.3067 125.038 26.44H123.838C123.731 26.6 123.624 26.7333 123.518 26.84H123.798C123.771 26.8667 123.744 26.8933 123.718 26.92C123.691 26.9467 123.664 26.9867 123.638 27.04H121.398L121.198 27.24H121.878C121.851 27.2667 121.811 27.2933 121.758 27.32C121.731 27.3467 121.704 27.3867 121.678 27.44H122.918C122.731 27.6267 122.491 27.8267 122.198 28.04H121.598C121.571 28.0667 121.531 28.0933 121.478 28.12C121.424 28.1467 121.371 28.1867 121.318 28.24H120.878C120.451 28.5333 119.984 28.8 119.478 29.04H118.958C118.638 29.2 118.291 29.3467 117.918 29.48C117.571 29.6133 117.198 29.7333 116.798 29.84H116.158C115.864 29.92 115.558 29.9867 115.238 30.04C114.918 30.12 114.571 30.1867 114.198 30.24H115.878C115.504 30.2933 115.118 30.3333 114.718 30.36C114.318 30.3867 113.891 30.4 113.438 30.4C113.011 30.4 112.584 30.3867 112.158 30.36C111.731 30.3333 111.318 30.2933 110.918 30.24H109.238C108.891 30.1867 108.558 30.12 108.238 30.04C107.918 29.9867 107.598 29.92 107.278 29.84H107.918C107.198 29.6533 106.518 29.3867 105.878 29.04H106.398C105.918 28.7733 105.504 28.5067 105.158 28.24H105.598C105.544 28.1867 105.491 28.1467 105.438 28.12C105.411 28.0933 105.371 28.0667 105.318 28.04H105.918C105.811 27.9333 105.704 27.84 105.598 27.76C105.491 27.6533 105.384 27.5467 105.278 27.44H103.998L103.798 27.24H103.118C103.091 27.1867 103.064 27.1467 103.038 27.12C103.011 27.0933 102.984 27.0667 102.958 27.04H105.158C105.131 26.9867 105.078 26.92 104.998 26.84H104.718C104.664 26.7867 104.611 26.72 104.558 26.64C104.504 26.56 104.451 26.4933 104.398 26.44H105.598C105.518 26.3067 105.438 26.1733 105.358 26.04C105.278 25.9067 105.198 25.7733 105.118 25.64H100.118C100.038 25.5067 99.9711 25.3733 99.9178 25.24H101.878L101.518 24.44H102.598C102.544 24.3067 102.491 24.1733 102.438 24.04C102.411 23.9067 102.371 23.7733 102.318 23.64H102.198L102.078 23.24H102.358L102.238 22.84H104.398C104.371 22.7067 104.344 22.5733 104.318 22.44C104.291 22.3067 104.264 22.1733 104.238 22.04H102.638L102.558 21.24H101.998C101.998 21.1333 101.984 21.04 101.958 20.96C101.958 20.8533 101.958 20.7467 101.958 20.64H100.718V20.24H102.118V19.84H105.198V19.44H100.118V19.36C100.118 19.2267 100.131 19.12 100.158 19.04H107.078C107.078 18.9333 107.078 18.84 107.078 18.76C107.104 18.6533 107.118 18.5467 107.118 18.44H100.758C100.758 18.3867 100.758 18.3467 100.758 18.32C100.784 18.2933 100.798 18.2667 100.798 18.24H103.438C103.438 18.16 103.451 18.0933 103.478 18.04H106.438V17.84H100.798C100.824 17.7067 100.851 17.5733 100.878 17.44C100.904 17.3067 100.931 17.1733 100.958 17.04H102.478C102.478 16.9333 102.504 16.8 102.558 16.64H101.238C101.238 16.5867 101.238 16.5467 101.238 16.52C101.264 16.4933 101.278 16.4667 101.278 16.44H102.238C102.238 16.3867 102.238 16.3467 102.238 16.32C102.264 16.2933 102.278 16.2667 102.278 16.24H101.278L101.358 16.04H102.318L102.438 15.64H103.198L103.438 15.04H102.718C102.771 14.9067 102.824 14.7733 102.878 14.64C102.931 14.48 102.998 14.3467 103.078 14.24H102.958L103.038 14.04H102.038C102.091 13.9333 102.118 13.8667 102.118 13.84H101.198L101.438 13.44H103.398C103.424 13.3867 103.478 13.32 103.558 13.24H104.278C104.384 13.1067 104.478 12.9733 104.558 12.84C104.664 12.68 104.771 12.5467 104.878 12.44H104.158C104.238 12.3333 104.318 12.24 104.398 12.16C104.504 12.0533 104.611 11.9467 104.718 11.84H106.278L106.678 11.44H104.318C104.664 11.1467 105.011 10.88 105.358 10.64H107.558L107.878 10.44H107.158C107.371 10.3067 107.624 10.1733 107.918 10.04H109.478C110.198 9.69333 110.944 9.42667 111.718 9.24H109.478C110.064 9.10666 110.678 9 111.318 8.92C111.958 8.84 112.624 8.8 113.318 8.8C114.011 8.8 114.664 8.84 115.278 8.92C115.891 9 116.478 9.10666 117.038 9.24H119.238C119.638 9.34666 120.011 9.46666 120.358 9.6C120.731 9.73333 121.091 9.88 121.438 10.04H119.878C120.011 10.0933 120.131 10.16 120.238 10.24C120.371 10.2933 120.491 10.36 120.598 10.44H121.318C121.371 10.4667 121.424 10.4933 121.478 10.52C121.531 10.5467 121.584 10.5867 121.638 10.64H119.438C119.784 10.88 120.131 11.1467 120.478 11.44H122.878L123.278 11.84H121.718C121.824 11.9467 121.918 12.0533 121.998 12.16C122.104 12.24 122.198 12.3333 122.278 12.44H122.998C123.104 12.5467 123.198 12.68 123.278 12.84C123.384 12.9733 123.491 13.1067 123.598 13.24H122.838C122.864 13.2933 122.918 13.36 122.998 13.44H120.998L121.238 13.84H122.158L122.278 14.04H123.318C123.318 14.0667 123.344 14.1333 123.398 14.24H123.518L123.878 15.04L124.118 15.64H124.158L124.278 16.04H123.798L123.878 16.24H124.238L124.318 16.44H124.958C124.958 16.4667 124.958 16.4933 124.958 16.52C124.984 16.5467 124.998 16.5867 124.998 16.64H124.678L124.798 17.04H123.278L123.398 17.84H129.038V18.04H126.078C126.078 18.0667 126.078 18.0933 126.078 18.12C126.104 18.1467 126.118 18.1867 126.118 18.24H123.438C123.464 18.2933 123.478 18.36 123.478 18.44H129.838C129.838 18.5467 129.838 18.6533 129.838 18.76C129.838 18.84 129.851 18.9333 129.878 19.04H122.918ZM110.758 16.44V16.64H112.038V16.96H115.238V16.64H115.518V16.44H114.878V16.24H114.478C114.478 16.16 114.464 16.0933 114.438 16.04H114.918C114.918 15.9333 114.891 15.8 114.838 15.64H114.798C114.771 15.4 114.691 15.2 114.558 15.04C114.291 14.6133 113.878 14.4 113.318 14.4C112.784 14.4 112.384 14.6133 112.118 15.04H112.838C112.731 15.2 112.651 15.4 112.598 15.64H111.798C111.798 15.6933 111.784 15.76 111.758 15.84C111.758 15.8933 111.744 15.96 111.718 16.04H110.758C110.758 16.12 110.744 16.1867 110.718 16.24H111.718V16.44H110.758ZM159.885 9.84H158.565L158.525 10.04H162.325L162.085 10.84H158.885L158.685 11.64H158.525L158.405 12.04H155.365L155.125 12.84H153.285L153.165 13.24H157.805L157.765 13.44H158.005L157.765 14.24H157.205L157.045 14.84H157.765L157.645 15.24H157.805L157.685 15.64H156.605L156.445 16.24H157.205L157.085 16.64H156.005L155.925 17.04H155.045L154.885 17.64H154.485L154.365 18.04H156.245L156.125 18.44H157.445L157.365 18.64H153.485L153.245 19.44H154.845L154.685 20.04H153.005L152.765 20.84H154.925L154.725 21.44H155.085L155.045 21.64H155.285L155.205 21.84H155.365L155.325 22.04H155.045L154.925 22.44H154.525L154.365 23.04H154.565L154.445 23.44H154.525L154.325 24.04H154.365L154.205 24.64H154.165L153.965 25.24H153.445L153.325 25.64H153.485L153.445 25.84H153.765L153.525 26.64H153.845L153.725 27.04H153.525L153.365 27.64H153.685L153.565 28.04H153.165L153.085 28.44H152.205L152.125 28.68L152.085 28.84H154.205C154.072 29.1333 153.872 29.4 153.605 29.64H148.485C148.405 29.72 148.298 29.7867 148.165 29.84H152.565C152.458 29.8667 152.338 29.9067 152.205 29.96C152.072 29.9867 151.925 30 151.765 30H142.645C142.485 30 142.338 29.9867 142.205 29.96C142.098 29.9067 141.978 29.8667 141.845 29.84H137.405C137.298 29.7867 137.192 29.72 137.085 29.64H142.165C141.898 29.4 141.698 29.1333 141.565 28.84H139.485C139.458 28.8133 139.445 28.7867 139.445 28.76C139.445 28.7333 139.432 28.7067 139.405 28.68L139.325 28.44H140.205L140.085 28.04H140.485L140.365 27.64H140.005L139.845 27.04H140.005L139.885 26.64H139.605L139.365 25.84H139.045L139.005 25.64H138.845L138.725 25.24H139.245L139.045 24.64H139.085L138.925 24.04H138.885L138.725 23.44H138.645L138.525 23.04H138.325L138.165 22.44H138.525L138.405 22.04H138.685L138.645 21.84H138.485L138.405 21.64H138.165L138.125 21.44H137.765L137.565 20.84H135.405L135.165 20.04H136.845L136.685 19.44H135.085L134.845 18.64H138.725L138.685 18.44H137.405L137.285 18.04H138.525L138.405 17.64H136.685L136.525 17.04H137.085L136.965 16.64H136.725L136.605 16.24H137.245L137.085 15.64H136.245L136.125 15.24H137.645L137.525 14.84H136.005L135.845 14.24H136.285L136.045 13.44H134.645L134.565 13.24H134.765L134.645 12.84H136.365L136.125 12.04H135.045L134.925 11.64H135.245L135.045 10.84H137.445L137.205 10.04H133.485L133.405 9.84H141.725L141.605 9.44H137.125L136.925 8.84H139.765L139.525 8.04H139.205L138.965 7.24H137.565L137.445 6.84H133.565L133.325 6.04H133.605L133.485 5.64L133.445 5.44H133.245L133.165 5.24L132.925 4.44H132.725L132.645 4.24H132.325L132.165 3.64H129.245L129.165 3.44H131.445L131.365 3.16C131.365 3.13333 131.365 3.12 131.365 3.12C131.338 3.09333 131.325 3.06667 131.325 3.04H131.805V2.88C131.805 2.64 131.898 2.42667 132.085 2.24H130.325C130.485 2.08 130.685 2 130.925 2H138.365C138.765 2 139.085 2.08 139.325 2.24H141.085C141.405 2.42667 141.658 2.69333 141.845 3.04H141.325L141.445 3.32L141.485 3.44H139.205L139.245 3.64H142.165L142.325 4.24H142.645L142.685 4.44H142.925L143.125 5.24L143.165 5.44H143.405L143.445 5.64H143.405L143.525 6.04H143.285L143.485 6.84H147.365L147.445 7.24H149.045L149.165 6.84H149.365L149.565 6.04H149.685L149.765 5.64H149.885L149.925 5.44H148.885L148.925 5.24H149.925L150.125 4.44H149.365L149.405 4.24H146.325L146.485 3.64H147.885L147.925 3.44H145.285L145.325 3.32C145.352 3.26667 145.365 3.21333 145.365 3.16C145.365 3.10667 145.378 3.06667 145.405 3.04H150.205C150.338 2.69333 150.578 2.42667 150.925 2.24H152.405C152.698 2.08 153.032 2 153.405 2H160.845C161.085 2 161.285 2.08 161.445 2.24H159.925C160.112 2.42667 160.205 2.64 160.205 2.88V3.04H155.445C155.418 3.06667 155.405 3.10667 155.405 3.16L155.325 3.44H157.965L157.925 3.64H156.485L156.325 4.24H159.405L159.365 4.44H160.085L159.845 5.24H158.885L158.845 5.44H159.885L159.845 5.64H159.725L159.605 6.04H159.485L159.245 6.84H159.045L158.925 7.24H158.645L158.445 8.04H163.405L163.165 8.84H160.405L160.205 9.44H159.965L159.885 9.84ZM146.765 8.84L146.885 9.44H150.405L150.565 8.84H153.365L153.565 8.04H149.365L149.565 8.84H146.765ZM152.325 10.84L152.525 10.04H148.765L148.805 9.84H143.205L143.245 10.04H146.965L147.205 10.84H144.765L144.965 11.64H144.645L144.765 12.04H148.725L148.805 11.64H148.965L149.165 10.84H152.325ZM148.365 13.44H148.125L148.165 13.24H144.245L144.285 13.44H145.685L145.885 14.24H145.445L145.605 14.84H147.085L147.205 15.24H145.685L145.805 15.64H146.645L146.765 16.24H146.125L146.245 16.64H146.445L146.485 16.76L146.525 16.64H147.565L147.685 16.24H146.925L147.045 15.64H148.165L148.245 15.24H148.085L148.165 14.84H147.485L147.605 14.24H148.165L148.365 13.44ZM181.448 27.84V28.24H184.928V28.92C184.928 28.9733 184.914 29.0133 184.888 29.04H183.008C182.954 29.4133 182.781 29.68 182.488 29.84H182.128C181.994 29.9467 181.808 30 181.568 30H174.568C174.328 30 174.141 29.9467 174.008 29.84H174.328C174.061 29.6533 173.901 29.3867 173.848 29.04H175.768V28.24H174.168C174.034 28.3733 173.888 28.5067 173.728 28.64C173.594 28.7733 173.448 28.9067 173.288 29.04H172.848C172.368 29.3867 171.888 29.6533 171.408 29.84H170.128C169.941 29.92 169.728 29.9867 169.488 30.04C169.274 30.12 169.048 30.1867 168.808 30.24H168.488C168.221 30.2933 167.941 30.3333 167.648 30.36C167.381 30.3867 167.101 30.4 166.808 30.4C166.488 30.4 166.168 30.3867 165.848 30.36C165.554 30.3333 165.261 30.2933 164.968 30.24H165.288C165.021 30.1867 164.754 30.12 164.488 30.04C164.248 29.9867 164.008 29.92 163.768 29.84H165.008C164.421 29.6267 163.888 29.36 163.408 29.04H163.848C163.661 28.9067 163.488 28.7733 163.328 28.64C163.168 28.5067 163.008 28.3733 162.848 28.24H160.848L160.488 27.84C160.461 27.7867 160.421 27.72 160.368 27.64C160.314 27.56 160.261 27.4933 160.208 27.44H161.408C161.354 27.3333 161.288 27.24 161.208 27.16C161.154 27.0533 161.101 26.9467 161.048 26.84H160.688C160.688 26.8133 160.661 26.7467 160.608 26.64H160.248L160.128 26.44H160.168L159.928 25.84H159.728C159.701 25.7333 159.674 25.64 159.648 25.56C159.621 25.4533 159.594 25.3467 159.568 25.24H158.047C157.967 24.9467 157.927 24.68 157.927 24.44H159.248V24.04C159.248 23.9067 159.248 23.7733 159.248 23.64C159.248 23.48 159.261 23.3467 159.288 23.24H160.488C160.514 23.1067 160.541 22.9733 160.568 22.84C160.594 22.68 160.621 22.5467 160.648 22.44H159.528L159.608 22.24H159.648L159.728 22.04H159.688C159.741 21.9333 159.794 21.84 159.848 21.76C159.901 21.6533 159.941 21.5467 159.968 21.44H157.607L157.847 21.04H156.967C157.047 20.96 157.101 20.8933 157.127 20.84H158.567C158.621 20.7867 158.674 20.72 158.728 20.64C158.781 20.56 158.834 20.4933 158.888 20.44H158.968C159.234 20.12 159.514 19.8533 159.808 19.64H156.527C156.714 19.5067 156.914 19.3733 157.127 19.24C157.314 19.08 157.514 18.9467 157.727 18.84H159.928L160.288 18.64H161.408C161.461 18.5867 161.528 18.5467 161.608 18.52C161.688 18.4933 161.754 18.4667 161.808 18.44H162.288C162.768 18.2 163.288 18 163.848 17.84H166.288C166.661 17.7067 167.034 17.6 167.408 17.52C167.808 17.4133 168.221 17.32 168.648 17.24H167.648L168.288 17.12L172.528 16.44V16.24H174.568V16.04H170.728V15.84H173.008C173.008 15.7067 173.008 15.6 173.008 15.52C173.008 15.4133 172.994 15.32 172.968 15.24C172.941 15 172.848 14.8 172.688 14.64H172.008C171.981 14.6133 171.914 14.5733 171.808 14.52L171.528 14.64H170.848C170.741 14.72 170.634 14.8133 170.528 14.92C170.421 15 170.301 15.1067 170.168 15.24H170.208C169.914 15.5333 169.541 15.68 169.088 15.68H162.288C161.888 15.68 161.621 15.5333 161.488 15.24H161.448C161.368 15.1067 161.341 14.96 161.368 14.8V14.64H162.008C162.034 14.5867 162.048 14.52 162.048 14.44H159.488C159.488 14.3333 159.514 14.2 159.568 14.04H165.328C165.328 14.0133 165.354 13.9467 165.408 13.84H161.848C161.928 13.5733 162.048 13.3067 162.208 13.04H162.888C162.968 12.9067 163.061 12.7733 163.168 12.64C163.274 12.5067 163.381 12.3733 163.488 12.24H160.488L160.848 11.84H166.648C166.754 11.7333 166.861 11.64 166.968 11.56C167.101 11.4533 167.221 11.3467 167.328 11.24H163.648L163.888 11.04H162.768C162.901 10.9333 163.048 10.84 163.208 10.76C163.368 10.6533 163.528 10.5467 163.688 10.44H165.568C166.128 10.12 166.714 9.85333 167.328 9.64H167.608C168.328 9.37333 169.128 9.17333 170.008 9.04C170.914 8.88 171.901 8.8 172.968 8.8C175.154 8.8 177.008 9.08 178.528 9.64H178.208C178.501 9.74667 178.781 9.86667 179.048 10C179.341 10.1333 179.621 10.28 179.888 10.44H178.008L178.848 11.04H179.968L180.208 11.24H183.888L184.488 11.84H178.688C178.741 11.8933 178.794 11.96 178.848 12.04C178.901 12.12 178.954 12.1867 179.008 12.24H181.968C182.074 12.3467 182.168 12.48 182.248 12.64C182.354 12.7733 182.434 12.9067 182.488 13.04H181.848L182.207 13.84H185.768C185.821 13.9467 185.848 14.0133 185.848 14.04H180.088C180.141 14.0933 180.168 14.16 180.168 14.24C180.194 14.32 180.221 14.3867 180.248 14.44H181.568C181.568 14.4667 181.568 14.4933 181.568 14.52C181.594 14.5467 181.608 14.5867 181.608 14.64H182.288L182.528 15.84H180.208C180.208 15.8667 180.208 15.8933 180.208 15.92C180.234 15.9467 180.248 15.9867 180.248 16.04H184.088V16.24H182.088V16.44C182.114 16.5733 182.128 16.7067 182.128 16.84C182.128 16.9733 182.128 17.1067 182.128 17.24H183.168V17.84H180.688V18.44H180.248V18.64H179.168V18.84H176.968V19.64H180.248V20.44H180.168V20.84H178.728V21.04H179.608V21.44H182.248V22.04H181.768V22.44H182.088V23.24H181.848V24.44H180.528V25.24H182.048V25.84H182.248V26.64H182.608V26.84H182.928V27.44H181.688V27.84H181.448ZM169.848 14.4C169.661 14.4 169.528 14.4133 169.448 14.44H170.288C170.208 14.4133 170.061 14.4 169.848 14.4ZM170.128 21.36L169.768 21.44H170.128V21.36ZM168.768 22.44H169.888C169.594 22.6533 169.448 22.92 169.448 23.24H168.248V23.36C168.248 23.6267 168.341 23.8533 168.528 24.04C168.661 24.2267 168.928 24.36 169.328 24.44H170.288C170.688 24.36 171.034 24.2267 171.328 24.04C171.568 23.8267 171.794 23.56 172.008 23.24H172.208C172.261 23.1067 172.314 22.9867 172.368 22.88C172.421 22.7467 172.461 22.6 172.488 22.44H172.168C172.168 22.3867 172.168 22.3467 172.168 22.32C172.194 22.2933 172.208 22.2667 172.208 22.24H172.248V22.04H172.728C172.754 21.9333 172.768 21.84 172.768 21.76C172.768 21.6533 172.768 21.5467 172.768 21.44H172.088L170.128 21.88C170.021 21.9067 169.914 21.9333 169.808 21.96C169.728 21.9867 169.648 22.0133 169.568 22.04C169.488 22.0667 169.408 22.0933 169.328 22.12C169.248 22.1467 169.181 22.1867 169.128 22.24H169.088C169.034 22.2667 168.981 22.2933 168.928 22.32C168.874 22.3467 168.821 22.3867 168.768 22.44ZM168.967 24.44H167.968C168.074 24.4667 168.234 24.48 168.448 24.48C168.528 24.48 168.608 24.48 168.688 24.48C168.794 24.48 168.888 24.4667 168.967 24.44ZM208.85 13.44H208.17V14.04H208.33V14.64H209.21V15.04H208.73V15.84H208.61V16.04H208.77V16.84H208.13V17.24H206.85V17.64H207.81V18.24H208.45V18.64H208.65V19.44H208.77V20.64H208.73V21.24H208.65V22.04H209.89V22.64H207.97V23.64H208.81V23.84H209.13V24.04H208.13V24.64H207.85V25.44H208.81V26.24H208.53V26.84H208.81V27.24H208.73V28.04H208.69V28.84H208.77V29.04H208.73C208.677 29.3067 208.584 29.5067 208.45 29.64H209.13C208.97 29.88 208.704 30 208.33 30H201.33C201.01 30 200.744 29.88 200.53 29.64H199.85C199.717 29.5067 199.624 29.3067 199.57 29.04H199.61V28.84H199.53V28.04H199.57V27.6C199.49 27.76 199.384 27.9067 199.25 28.04H199.33C199.064 28.36 198.784 28.6267 198.49 28.84H198.41C198.384 28.8667 198.344 28.8933 198.29 28.92C198.237 28.9467 198.184 28.9867 198.13 29.04H198.05C197.704 29.28 197.344 29.48 196.97 29.64H197.65C197.01 29.9333 196.317 30.1333 195.57 30.24H195.05C194.73 30.2933 194.397 30.3333 194.05 30.36C193.73 30.3867 193.384 30.4 193.01 30.4C192.744 30.4 192.477 30.3867 192.21 30.36C191.944 30.3333 191.664 30.2933 191.37 30.24H191.89C191.25 30.1067 190.65 29.9067 190.09 29.64H189.41C189.01 29.4533 188.664 29.2533 188.37 29.04H188.49C188.464 28.9867 188.424 28.9467 188.37 28.92C188.317 28.8933 188.264 28.8667 188.21 28.84H188.29C188.157 28.7067 188.01 28.5733 187.85 28.44C187.717 28.3067 187.584 28.1733 187.45 28.04H187.37C187.264 27.9067 187.157 27.7733 187.05 27.64C186.944 27.5067 186.837 27.3733 186.73 27.24H186.81C186.784 27.1867 186.744 27.12 186.69 27.04C186.637 26.96 186.584 26.8933 186.53 26.84H186.25C186.224 26.7333 186.17 26.64 186.09 26.56C186.037 26.4533 185.984 26.3467 185.93 26.24H186.25C186.117 25.9467 186.01 25.68 185.93 25.44H184.97C184.944 25.3067 184.904 25.1733 184.85 25.04C184.797 24.9067 184.757 24.7733 184.73 24.64H184.97L184.85 24.04H185.85C185.824 23.9867 185.81 23.92 185.81 23.84H185.45C185.45 23.76 185.437 23.6933 185.41 23.64H184.61C184.584 23.5867 184.57 23.52 184.57 23.44C184.57 23.36 184.557 23.2933 184.53 23.24H186.65C186.624 23.1333 186.61 23.04 186.61 22.96C186.61 22.8533 186.597 22.7467 186.57 22.64H186.09C186.064 22.5333 186.05 22.44 186.05 22.36C186.05 22.2533 186.05 22.1467 186.05 22.04H185.37V21.24H185.13V20.64H185.01V20.24H185.09V18.64H184.93V18.24H184.57V17.64H185.01V17.24H185.29V16.84H185.33V16.04H185.17V15.84H185.29V15.04H186.05V14.64H185.33V14.04H185.09V13.44H184.97V12.64H185.97V12.24H186.69V11.84H186.29V11.44H185.41V11.24H185.17V10.84H185.13V10.28C185.13 10.2267 185.13 10.1867 185.13 10.16C185.157 10.1067 185.17 10.0667 185.17 10.04H185.13C185.237 9.48 185.584 9.2 186.17 9.2H193.81C194.424 9.2 194.77 9.48 194.85 10.04H194.93V10.84H194.97V11.24H195.21V11.44H196.09V11.84H196.49V12.24H195.77V12.64H194.77V13.44H194.89V14.04H195.13V14.64H195.85V15.04H195.09V15.84H194.97V16.04H195.13V16.84H195.09V17.24H194.81V17.64H194.37V18.24H194.73V18.64H194.89V20.24H194.81V20.64H194.93V21.04C194.93 21.12 194.944 21.1867 194.97 21.24H195.17C195.17 21.5333 195.21 21.8 195.29 22.04H195.97C196.05 22.2533 196.157 22.4533 196.29 22.64H196.81C196.944 22.8 197.104 22.92 197.29 23C197.477 22.92 197.624 22.8 197.73 22.64H199.65C199.784 22.4533 199.89 22.2533 199.97 22.04H198.77C198.85 21.8 198.89 21.5333 198.89 21.24H198.97V20.64H199.01V19.44H198.89V18.64H198.69V18.24H198.05V17.64H197.09V17.24H198.37V16.84H199.01V16.04H198.85V15.84H198.97V15.04H199.45V14.64H198.57V14.04H198.41V13.44H199.09V12.64H199.93V12.24H200.97V11.84H199.65V11.44H198.97V11.24H198.81V10.84H198.97V10.28C198.97 10.1733 198.984 10.0933 199.01 10.04H198.73C198.864 9.48 199.224 9.2 199.81 9.2H207.41C207.97 9.2 208.317 9.48 208.45 10.04H208.69C208.717 10.0933 208.73 10.1733 208.73 10.28V10.84H208.57V11.24H208.73V11.44H209.41V11.84H210.73V12.24H209.69V12.64H208.85V13.44ZM225.723 14.44H222.443V14.64H222.683V15.44H223.723V15.84H221.043V16.44H221.683V16.64H221.723V17.24H221.923V17.44H221.483V17.64H221.963V17.84H221.643V18.24H221.403V18.84H221.603V19.04H221.763V19.24H220.683V19.64H220.243V19.84H219.883V20.44H220.803V20.64H220.123V21.04H222.163V21.84H220.283V22.64H221.963V23.44H221.683V23.64H222.083V24.44H220.683V24.84H223.403V25.64H221.043V25.84H222.123V26.44H221.603V27.24H221.443V28.04H221.643V28.64H221.203V28.92C221.203 29.0533 221.19 29.16 221.163 29.24H222.243C222.137 29.5333 221.977 29.7333 221.763 29.84H220.443C220.31 29.9467 220.123 30 219.883 30H212.723C212.483 30 212.297 29.9467 212.163 29.84H213.483C213.27 29.7333 213.11 29.5333 213.003 29.24H211.923C211.897 29.16 211.883 29.0533 211.883 28.92V28.64H212.323V28.04H212.123V27.24H212.283V26.44H212.803V25.84H211.723V25.64H214.083V24.84H211.363V24.44H212.763V23.64H212.363V23.44H212.643V22.64H210.963V21.84H212.843V21.04H210.803V20.64H211.483V20.44H210.563V19.84H210.923V19.64H211.363V19.24H212.443V19.04H212.283V18.84H212.083V18.24H212.323V17.84H212.643V17.64H212.163V17.44H212.603V17.24H212.403V16.64H212.363V16.44H211.723V15.84H214.403V15.44H213.363V14.64H213.123V14.44H216.403V14.24H212.923V13.64H214.963V13.04H213.323V12.84H211.723V12.04H212.843V11.84H212.323V11.64H211.763V11.04H211.963V10.84H212.603V10.04H212.323V9.64H212.883V8.24H214.563V8.04H213.443V7.44H211.923V7.24H211.843V6.84H212.203V6.44H212.283V6.24H212.323V5.64H212.243V5.44H212.323V5.24H212.443V4.64H212.163V4.04H212.443V3.84H212.363V3.04H212.323V2.84H212.283V2.68C212.283 2.54667 212.31 2.4 212.363 2.24H212.403C212.59 1.81333 212.923 1.6 213.403 1.6H220.563C220.99 1.6 221.323 1.81333 221.563 2.24H221.523C221.577 2.4 221.603 2.54667 221.603 2.68V2.84H221.643V3.04H221.683V3.84H221.763V4.04H221.483V4.64H221.763V5.24H221.643V5.44H221.563V5.64H221.643V6.24H221.603V6.44H221.523V6.84H221.163V7.24H221.243V7.44H222.763V8.04H223.883V8.24H222.203V9.64H221.643V10.04H221.923V10.84H221.283V11.04H221.083V11.64H221.643V11.84H222.163V12.04H221.043V12.84H222.643V13.04H224.283V13.64H222.243V14.24H225.723V14.44ZM244.253 25.44H243.293V25.84H244.733V26.24H246.053V26.84H245.133V27.44H247.813V28.04H243.453V28.84H243.773V28.92C243.773 28.9733 243.76 29.0133 243.733 29.04C243.68 29.3067 243.586 29.5067 243.453 29.64H243.133C243.026 29.7467 242.946 29.8133 242.893 29.84H244.253C244.12 29.9467 243.933 30 243.693 30H239.173C238.72 30 238.266 29.9867 237.813 29.96C237.386 29.9333 236.973 29.8933 236.573 29.84H235.213C235.026 29.8133 234.84 29.7867 234.653 29.76C234.466 29.7067 234.266 29.6667 234.053 29.64H234.373C234.026 29.56 233.693 29.4667 233.373 29.36C233.08 29.2533 232.786 29.1467 232.493 29.04H232.533C232.453 28.9867 232.373 28.9467 232.293 28.92C232.213 28.8933 232.146 28.8667 232.093 28.84H231.773C231.56 28.7067 231.346 28.5867 231.133 28.48C230.92 28.3467 230.706 28.2 230.493 28.04H234.893C234.786 27.9333 234.666 27.84 234.533 27.76C234.426 27.6533 234.32 27.5467 234.213 27.44H231.533L231.013 26.84H231.973C231.893 26.7333 231.813 26.64 231.733 26.56C231.68 26.4533 231.626 26.3467 231.573 26.24H230.253L230.013 25.84H228.573C228.546 25.7867 228.52 25.72 228.493 25.64C228.466 25.56 228.426 25.4933 228.373 25.44H229.373L229.133 24.84H229.933L229.813 24.44C229.76 24.28 229.733 24.1467 229.733 24.04H232.893C232.866 23.9333 232.84 23.84 232.813 23.76C232.813 23.6533 232.813 23.5467 232.813 23.44H228.253C228.253 23.3867 228.24 23.3467 228.213 23.32C228.213 23.2933 228.213 23.2667 228.213 23.24H228.093C228.093 23.1333 228.08 23.04 228.053 22.96C228.053 22.8533 228.053 22.7467 228.053 22.64H227.933C227.933 22.5333 227.92 22.44 227.893 22.36C227.893 22.2533 227.893 22.1467 227.893 22.04H228.453V21.84H228.093V21.44H227.773V20.64H228.253V19.84H227.773V19.24H228.133V18.84H228.173V18.24H228.373V16.84H228.453V16.24H228.653V16.2H225.493C225.093 16.2 224.773 16.0133 224.533 15.64H225.133C225.053 15.48 225.013 15.3067 225.013 15.12V14.84H223.733V14.24H224.013V13.44H223.813V13.04H223.893V12.64H224.493V12.44H223.493V11.84H224.693V11.24H224.453V10.84H224.173V10.24H223.933V10.04H223.813C223.893 9.64 224.146 9.37333 224.573 9.24H224.813C224.893 9.21333 225 9.2 225.133 9.2H228.293V9.04H228.453V8.44H228.133V8.04H228.093V7.44H227.933V7.24H226.973V6.84H226.053V6.64H226.373V6.44H227.293V5.64H227.653V5.24H226.373V4.84H228.333V4.24H228.133V4.04H227.693V3.64H228.093V3.44H227.693V2.84H228.053V2.68C228.053 2.54667 228.08 2.4 228.133 2.24H228.653C228.84 1.81333 229.173 1.6 229.653 1.6H236.653C237.08 1.6 237.413 1.81333 237.653 2.24H237.133C237.186 2.4 237.213 2.54667 237.213 2.68V2.84H236.853V3.44H237.253V3.64H236.853V4.04H237.293V4.24H237.493V4.84H235.533V5.24H236.813V5.64H236.453V6.44H235.533V6.64H235.213V6.84H236.133V7.24H237.093V7.44H237.253V8.04H237.293V8.44H237.613V9.04H237.453V9.2H242.493C242.626 9.2 242.72 9.21333 242.773 9.24H242.533C242.906 9.37333 243.16 9.64 243.293 10.04H243.413C243.413 10.0667 243.413 10.0933 243.413 10.12C243.44 10.1467 243.453 10.1867 243.453 10.24H243.693V10.84H243.973V11.24H244.213V11.84H243.013V12.44H244.013V12.64H243.413V13.04H243.333V13.44H243.533V14.24H243.253V14.84H244.533V15.12C244.533 15.2267 244.52 15.32 244.493 15.4C244.466 15.48 244.426 15.56 244.373 15.64H243.813C243.573 16.0133 243.253 16.2 242.853 16.2H237.813V16.24H237.613V16.84H237.533V18.24H237.333V18.84H237.293V19.24H236.933V19.84H237.413V20.64H236.933C236.933 20.7733 236.933 20.9067 236.933 21.04C236.96 21.1733 236.986 21.3067 237.013 21.44H237.373C237.426 21.6 237.48 21.7333 237.533 21.84H237.853L237.973 22.04H237.413C237.706 22.4133 238.16 22.6 238.773 22.6H242.413C242.546 22.6 242.64 22.6133 242.693 22.64H242.813C243.133 22.72 243.36 22.92 243.493 23.24H243.613C243.613 23.2667 243.613 23.2933 243.613 23.32C243.64 23.3467 243.653 23.3867 243.653 23.44H248.213C248.213 23.4667 248.213 23.5067 248.213 23.56C248.24 23.5867 248.253 23.6267 248.253 23.68V24.04H245.053V24.84H244.253V25.44Z" fill="white"/>
</svg>
